<svg xmlns="http://www.w3.org/2000/svg" width="200" height="200" viewBox="0 0 200 200" version="1.1"><path d="" stroke="none" fill="#03045e" fill-rule="evenodd"/><path d="M 99.156 15.022 C 85.580 16.900, 67.359 24.975, 56.410 33.967 C 46.519 42.089, 37.944 54.315, 32.888 67.500 C 31.449 71.254, 30.904 71.645, 24.025 73.857 C 16.672 76.221, 12 79.564, 12 82.461 C 12 83.315, 13.320 89.297, 14.934 95.756 C 16.548 102.215, 19.297 114.700, 21.043 123.500 C 24.745 142.163, 26.400 145.986, 32.248 149.383 C 36.807 152.032, 59.580 159.306, 67 160.484 C 69.475 160.876, 73.526 162.479, 76.003 164.045 C 96.928 177.274, 122.036 178.360, 139.501 166.792 C 143.262 164.301, 146.863 163.127, 156.256 161.332 C 169.825 158.739, 176.941 155.855, 182.772 150.587 C 186.256 147.439, 186.954 146.087, 187.902 140.640 C 189.486 131.544, 189.305 96.729, 187.641 90.500 C 185.779 83.529, 182.617 77.697, 179.092 74.731 C 176.719 72.734, 175.656 70.473, 173.979 63.855 C 172.815 59.260, 170.256 52.125, 168.294 48 C 161.482 33.680, 145.455 20.930, 128.862 16.629 C 121.431 14.703, 107.077 13.926, 99.156 15.022 M 93.001 28.073 C 79.705 31.554, 69.608 37.325, 59.951 46.966 C 54.470 52.437, 50.232 57.743, 48.142 61.750 C 46.350 65.188, 45.328 68, 45.872 68 C 46.416 68, 55.105 66.666, 65.181 65.035 C 113.603 57.197, 125.782 57.145, 152.794 64.660 C 157.905 66.082, 162.294 67.039, 162.546 66.787 C 163.179 66.154, 159.732 56.355, 156.977 50.954 C 151.816 40.839, 137.746 30.566, 124.907 27.540 C 115.989 25.438, 102.187 25.668, 93.001 28.073 M 91.999 77.250 C 91.999 78.487, 93.165 85.350, 94.591 92.500 L 97.183 105.500 102.127 105.151 C 106.148 104.867, 106.987 104.494, 106.620 103.151 C 106.371 102.243, 105.607 95.537, 104.921 88.250 L 103.675 75 97.837 75 C 92.451 75, 92 75.174, 91.999 77.250 M 115.338 78.250 C 115.646 80.037, 116.442 86.787, 117.106 93.250 L 118.314 105 121.907 105.014 C 123.883 105.021, 126.400 105.270, 127.500 105.566 C 129.446 106.091, 129.492 105.689, 129.201 90.553 L 128.902 75 121.840 75 L 114.777 75 115.338 78.250 M 141 92.044 L 141 108.050 143.565 109.025 C 144.976 109.561, 146.502 110, 146.957 110 C 147.726 110, 151.062 93.581, 152.496 82.743 C 153.198 77.429, 153.277 77.501, 145.750 76.604 L 141 76.038 141 92.044 M 69.112 78.081 C 66.698 78.555, 64.551 79.115, 64.340 79.326 C 63.988 79.678, 71.863 110.129, 72.477 110.790 C 72.690 111.020, 84.849 108.009, 85.727 107.509 C 85.851 107.438, 84.887 102.232, 83.583 95.940 C 82.279 89.648, 80.919 82.813, 80.561 80.750 C 79.962 77.300, 79.653 77.009, 76.705 77.110 C 74.942 77.170, 71.525 77.607, 69.112 78.081 M 47.250 82.220 C 44.913 82.714, 43 83.502, 43 83.972 C 43 85.417, 51.662 110.486, 53.499 114.356 C 55.409 118.381, 55.756 118.524, 59.492 116.822 C 61.013 116.129, 61.863 115.086, 61.557 114.289 C 61.271 113.543, 59.193 106.086, 56.939 97.717 C 54.685 89.348, 52.539 82.235, 52.171 81.911 C 51.802 81.587, 49.587 81.726, 47.250 82.220 M 163.094 89.712 C 162.431 94.559, 161.061 102.242, 160.048 106.783 C 158.223 114.971, 158.224 115.050, 160.211 116.113 C 161.313 116.703, 162.554 116.806, 162.968 116.343 C 164.249 114.911, 166.396 82.996, 165.287 81.887 C 164.635 81.235, 163.887 83.904, 163.094 89.712 M 27.602 88.500 C 25.746 89.905, 25.761 90.199, 28.301 101.719 C 29.729 108.198, 31.653 117.662, 32.576 122.750 C 33.499 127.838, 34.660 132, 35.156 132 C 35.653 132, 38.233 130.282, 40.889 128.182 L 45.720 124.363 43.492 119.932 C 42.267 117.494, 39.067 109.091, 36.382 101.258 C 33.697 93.425, 31.050 87.027, 30.500 87.040 C 29.950 87.053, 28.646 87.710, 27.602 88.500 M 174.684 117.684 C 174.188 124.711, 174.360 126.788, 175.531 127.960 C 176.823 129.251, 176.998 128.348, 176.985 120.464 C 176.964 108.325, 175.472 106.522, 174.684 117.684 M 98.208 117.071 C 94.748 117.520, 88.289 118.828, 83.856 119.977 C 75.542 122.132, 60.993 127.807, 61.009 128.889 C 61.045 131.199, 68.411 141.600, 73.918 147.115 C 84.477 157.690, 97.040 163, 111.500 163 C 122.463 163, 128.659 161.012, 134.744 155.541 C 140.328 150.520, 144.397 142.571, 146.394 132.784 C 148.315 123.363, 147.842 122.340, 140.506 120.075 C 128.272 116.296, 112.693 115.190, 98.208 117.071 M 107.139 139.999 C 102.799 141.024, 100.750 143.136, 100.750 146.583 C 100.750 150.545, 103.559 152.273, 109 151.657 C 118.797 150.548, 122.936 146.604, 119.619 141.541 C 117.832 138.814, 114.104 138.353, 107.139 139.999" stroke="none" fill="#03045e" fill-rule="evenodd"/></svg>