<?xml version="1.0" encoding="UTF-8"?>
<!DOCTYPE svg PUBLIC "-//W3C//DTD SVG 1.1//EN" "http://www.w3.org/Graphics/SVG/1.1/DTD/svg11.dtd">
<svg xmlns="http://www.w3.org/2000/svg" version="1.1" width="720px" height="720px" style="shape-rendering:geometricPrecision; text-rendering:geometricPrecision; image-rendering:optimizeQuality; fill-rule:evenodd; clip-rule:evenodd" xmlns:xlink="http://www.w3.org/1999/xlink">
<g><path style="opacity:0.989" fill="#e63946" d="M 283.5,68.5 C 310.087,66.2796 336.087,69.113 361.5,77C 370.23,80.1983 378.563,84.1983 386.5,89C 399.407,97.9037 411.74,107.57 423.5,118C 434.362,126.512 446.695,131.512 460.5,133C 479.492,134.438 498.492,135.772 517.5,137C 567.326,142.491 600.16,168.991 616,216.5C 630.146,261.75 641.146,307.75 649,354.5C 650.274,376.629 649.108,398.629 645.5,420.5C 648.639,433.088 651.473,445.755 654,458.5C 656.257,482.139 651.257,504.139 639,524.5C 614.078,562.904 579.911,589.737 536.5,605C 494.751,618.417 452.084,627.75 408.5,633C 387.858,635.553 367.192,637.886 346.5,640C 298.074,660.013 247.741,667.346 195.5,662C 175.984,660.43 156.984,656.43 138.5,650C 99.8536,633.46 80.5203,603.96 80.5,561.5C 81.6597,536.853 87.8263,513.519 99,491.5C 104.16,481.175 109.827,471.175 116,461.5C 116.458,445.955 114.791,430.621 111,415.5C 106.108,403.044 101.775,390.378 98,377.5C 93.3149,352.592 97.9815,329.592 112,308.5C 126.584,289.912 141.917,271.912 158,254.5C 164.024,246.455 169.024,237.788 173,228.5C 174.471,222.569 174.804,216.569 174,210.5C 171,199.5 168,188.5 165,177.5C 158.63,145.434 168.13,119.267 193.5,99C 209.885,87.5317 227.885,79.5317 247.5,75C 259.558,72.3524 271.558,70.1858 283.5,68.5 Z M 445.5,311.5 C 427.349,300.527 409.849,288.527 393,275.5C 395.232,285.302 396.398,295.302 396.5,305.5C 397.735,325.663 390.735,342.163 375.5,355C 372.89,356.481 370.223,357.648 367.5,358.5C 356.071,363.564 344.404,363.731 332.5,359C 298.335,344.164 271.835,320.664 253,288.5C 252.191,274.301 258.358,269.801 271.5,275C 284.722,291.894 299.055,307.894 314.5,323C 322.92,329.878 332.254,335.212 342.5,339C 361.106,342.263 371.606,334.429 374,315.5C 375.567,299.567 373.233,284.234 367,269.5C 362.508,261.691 359.008,253.524 356.5,245C 356.875,238.123 360.542,234.29 367.5,233.5C 371.879,234.523 375.879,236.356 379.5,239C 406.308,258.905 433.642,278.072 461.5,296.5C 466.799,302.369 466.799,308.203 461.5,314C 455.472,317.323 450.138,316.49 445.5,311.5 Z M 407.5,482.5 C 401.693,492.76 394.026,501.427 384.5,508.5C 382.14,510.853 379.473,512.853 376.5,514.5C 371.511,518.331 366.178,521.664 360.5,524.5C 316.546,548.42 270.212,554.254 221.5,542C 208.237,537.955 196.403,531.455 186,522.5C 179.929,516.367 177.263,509.034 178,500.5C 180.792,492.591 186.458,488.591 195,488.5C 207.631,490.153 218.964,494.82 229,502.5C 232.247,509.73 230.414,515.23 223.5,519C 276.347,533.637 325.013,524.97 369.5,493C 381.035,484.133 389.535,472.966 395,459.5C 397.618,447.568 393.118,439.734 381.5,436C 376.625,434.198 371.625,432.865 366.5,432C 350.196,430.484 333.863,430.151 317.5,431C 287.928,433.708 258.595,435.875 229.5,437.5C 218.079,437.137 206.745,435.97 195.5,434C 161.393,425.598 146.893,404.098 152,369.5C 162.819,334.835 185.652,312.335 220.5,302C 231.958,298.948 242.625,300.614 252.5,307C 259.075,312.821 260.908,320.321 258,329.5C 256.786,331.049 255.286,332.215 253.5,333C 231.765,331.009 211.432,335.342 192.5,346C 174.114,360.143 168.948,377.977 177,399.5C 182.706,406.105 189.873,410.272 198.5,412C 206.984,413.662 215.484,414.829 224,415.5C 257.43,413.766 291.597,411.433 326.5,408.5C 337.362,408.729 348.362,408.896 359.5,409C 375.514,409.672 390.181,414.339 403.5,423C 418.181,436.778 421.681,452.945 414,471.5C 412.311,475.56 410.144,479.227 407.5,482.5 Z M 582.5,394.5 C 568.789,412.2 550.789,423.033 528.5,427C 518.756,427.353 509.089,427.52 499.5,427.5C 510.815,441.982 523.648,454.982 538,466.5C 542.084,476 539.084,481.667 529,483.5C 525.075,482.953 521.575,481.453 518.5,479C 507.667,469.5 497.5,459.333 488,448.5C 473.043,429.874 457.71,411.541 442,393.5C 436.616,385.454 432.116,376.954 428.5,368C 429.255,365.825 430.088,363.659 431,361.5C 454.854,336.982 483.02,319.149 515.5,308C 534.199,302.102 552.865,302.102 571.5,308C 589.72,316.263 599.053,330.43 599.5,350.5C 598.789,367.228 593.122,381.895 582.5,394.5 Z"/></g>
<g><path style="opacity:0.976" fill="#e63946" d="M 536.5,325.5 C 573.829,323.189 585.329,339.189 571,373.5C 554.121,399.582 530.287,409.748 499.5,404C 488.389,401.197 478.889,395.697 471,387.5C 464.807,378.124 464.14,368.457 469,358.5C 488.583,341.458 511.083,330.458 536.5,325.5 Z"/></g>
</svg>
